<svg xmlns="http://www.w3.org/2000/svg" viewBox="0 0 100 100">
  <defs>
    <linearGradient id="grad" x1="0%" y1="0%" x2="100%" y2="100%">
      <stop offset="0%" style="stop-color:#268eff;stop-opacity:1" />
      <stop offset="100%" style="stop-color:#8a00e6;stop-opacity:1" />
    </linearGradient>
  </defs>
  <rect width="100" height="100" rx="20" fill="url(#grad)"/>
  <path d="M 30 70 L 30 35 C 30 32 32 30 35 30 L 55 25 C 58 24 60 26 60 29 L 60 55 M 30 55 C 25 55 22 58 22 62 C 22 66 25 69 30 69 C 35 69 38 66 38 62 C 38 58 35 55 30 55 M 60 60 C 55 60 52 63 52 67 C 52 71 55 74 60 74 C 65 74 68 71 68 67 C 68 63 65 60 60 60" fill="white"/>
</svg>
